<svg xmlns="http://www.w3.org/2000/svg" viewBox="0 0 117 140" width="117" height="140"><g transform="translate(75 185)"><path d="M-6,-160 C-30,-152 -44,-126 -50,-102 Q-42,-108 -35,-102 Q-26,-110 -16,-102 L12,-142 Z" fill="#2B2A4A" stroke="#2B2A4A" stroke-width="6" stroke-linejoin="round"/><path d="M-9,-180 L12,-180 L12,-156 L-9,-156 Z" fill="#2B2A4A" stroke="#2B2A4A" stroke-width="6" stroke-linejoin="round"/><path d="M-33,-100 L35,-100 L37,-56 Q37,-50 31,-50 L8,-50 Q4,-50 3,-56 L1,-68 L-1,-56 Q-2,-50 -6,-50 L-29,-50 Q-35,-50 -35,-56 Z" fill="#2B2A4A" stroke="#2B2A4A" stroke-width="6" stroke-linejoin="round"/><path d="M-12,-162 C-26,-162 -30,-152 -31,-138 L-31,-92 Q-31,-84 -23,-84 L27,-84 Q35,-84 35,-92 L35,-138 C34,-152 30,-162 16,-162 Z" fill="#2B2A4A" stroke="#2B2A4A" stroke-width="6" stroke-linejoin="round"/><path d="M-6,-163 L16,-163 L6,-132 Z" fill="#2B2A4A" stroke="#2B2A4A" stroke-width="6" stroke-linejoin="round"/><path d="M2,-158 L10,-158 L8,-138 L6,-134 L4,-138 Z" fill="#2B2A4A" stroke="#2B2A4A" stroke-width="0" stroke-linejoin="round"/><path d="M20,-144 L28,-144 L28,-134 L24,-130 L20,-134 Z" fill="#2B2A4A" stroke="#2B2A4A" stroke-width="0" stroke-linejoin="round"/><path d="M-31,-86 L36,-86 L36.4,-78 L-32,-78 Z" fill="#2B2A4A" stroke="#2B2A4A" stroke-width="0" stroke-linejoin="round"/><path d="M14,-88 L26,-88 L26,-76 L14,-76 Z" fill="#2B2A4A" stroke="#2B2A4A" stroke-width="0" stroke-linejoin="round"/><circle cx="-14" cy="-156" r="6" fill="#2B2A4A" stroke="#2B2A4A" stroke-width="6" stroke-linejoin="round"/><path d="M-6,-160 C-30,-152 -44,-126 -50,-102 Q-42,-108 -35,-102 Q-26,-110 -16,-102 L12,-142 Z" fill="#D93A3A" stroke="#2B2A4A" stroke-width="2" stroke-linejoin="round"/><path d="M-6,-158 C-28,-150 -40,-126 -45,-106 Q-42,-108 -38,-105 C-36,-126 -26,-142 -6,-158 Z" fill="#B02A2E"/><path d="M-9,-180 L12,-180 L12,-156 L-9,-156 Z" fill="#FFD9B8" stroke="#2B2A4A" stroke-width="2" stroke-linejoin="round"/><path d="M-9,-170 L12,-170 L12,-164 L-9,-160 Z" fill="#F2B896"/><path d="M-33,-100 L35,-100 L37,-56 Q37,-50 31,-50 L8,-50 Q4,-50 3,-56 L1,-68 L-1,-56 Q-2,-50 -6,-50 L-29,-50 Q-35,-50 -35,-56 Z" fill="#A83A2A" stroke="#2B2A4A" stroke-width="2" stroke-linejoin="round"/><path d="M-33,-100 L-18,-100 L-20,-50 L-29,-50 Q-35,-50 -35,-56 Z" fill="#8A2E22"/><path d="M-12,-162 C-26,-162 -30,-152 -31,-138 L-31,-92 Q-31,-84 -23,-84 L27,-84 Q35,-84 35,-92 L35,-138 C34,-152 30,-162 16,-162 Z" fill="#F0703A" stroke="#2B2A4A" stroke-width="2" stroke-linejoin="round"/><path d="M-25,-156 C-30,-152 -31,-146 -32,-138 L-31,-88 Q-30,-84 -24,-84 L-16,-84 L-14,-142 Z" fill="#C8512A"/><path d="M-6,-163 L16,-163 L6,-132 Z" fill="#FFC94A" stroke="#2B2A4A" stroke-width="2" stroke-linejoin="round"/><path d="M2,-158 L10,-158 L8,-138 L6,-134 L4,-138 Z" fill="#D93A3A" stroke="#2B2A4A" stroke-width="2" stroke-linejoin="round"/><path d="M6,-132 L8,-84" fill="none" stroke="#2B2A4A" stroke-width="2" stroke-linecap="round" stroke-linejoin="round"/><circle cx="14" cy="-118" r="3" fill="#FFC94A" stroke="#2B2A4A" stroke-width="1"/><circle cx="14" cy="-102" r="3" fill="#FFC94A" stroke="#2B2A4A" stroke-width="1"/><path d="M20,-144 L28,-144 L28,-134 L24,-130 L20,-134 Z" fill="#FFE48A" stroke="#2B2A4A" stroke-width="2" stroke-linejoin="round"/><path d="M-31,-86 L36,-86 L36.4,-78 L-32,-78 Z" fill="#FFC94A" stroke="#2B2A4A" stroke-width="2" stroke-linejoin="round"/><path d="M14,-88 L26,-88 L26,-76 L14,-76 Z" fill="#D93A3A" stroke="#2B2A4A" stroke-width="2" stroke-linejoin="round"/><circle cx="-14" cy="-156" r="6" fill="#FFC94A" stroke="#2B2A4A" stroke-width="2" stroke-linejoin="round"/><path d="M-24,-124 L-12,-124 L-4,-132 L-4,-112 L-12,-120 L-24,-120 Z" fill="#FFC94A" stroke="#2B2A4A" stroke-width="2" stroke-linejoin="round"/><circle cx="-24" cy="-122" r="3.2" fill="#FFE48A" stroke="#2B2A4A" stroke-width="1.5"/></g></svg>
