<svg xmlns="http://www.w3.org/2000/svg" viewBox="-62 -156 124.17 152.5" width="149" height="183"><defs>
<filter id="sh" x="-20%" y="-20%" width="140%" height="140%"><feOffset in="SourceAlpha" dx="-4" dy="-5" result="o"/><feGaussianBlur in="o" stdDeviation="1.6" result="b"/><feComposite in="SourceAlpha" in2="b" operator="out" result="c"/><feFlood flood-color="#9a5a46" flood-opacity=".2"/><feComposite in2="c" operator="in" result="s"/><feMerge><feMergeNode in="SourceGraphic"/><feMergeNode in="s"/></feMerge></filter>
<filter id="paper" x="0" y="0" width="100%" height="100%"><feTurbulence type="fractalNoise" baseFrequency=".55" numOctaves="2" seed="4" result="n"/><feColorMatrix in="n" type="matrix" values="0 0 0 0 .6  0 0 0 0 .42  0 0 0 0 .3  0 0 0 -.45 .3" result="m"/><feComposite in="m" in2="SourceAlpha" operator="in" result="t"/><feMerge><feMergeNode in="SourceGraphic"/><feMergeNode in="t"/></feMerge></filter>
<filter id="shL" x="-20%" y="-20%" width="140%" height="140%"><feOffset in="SourceAlpha" dx="-2.2" dy="-2" result="o"/><feGaussianBlur in="o" stdDeviation="1.2" result="b"/><feComposite in="SourceAlpha" in2="b" operator="out" result="c"/><feFlood flood-color="#9a5a46" flood-opacity=".16"/><feComposite in2="c" operator="in" result="s"/><feMerge><feMergeNode in="SourceGraphic"/><feMergeNode in="s"/></feMerge></filter>
<filter id="soft"><feGaussianBlur stdDeviation="3"/></filter>
<radialGradient id="glow"><stop offset="0" stop-color="#fffbd8" stop-opacity="1"/><stop offset=".35" stop-color="#fbe9a0" stop-opacity=".75"/><stop offset="1" stop-color="#f6dc8a" stop-opacity="0"/></radialGradient>
<radialGradient id="glowT"><stop offset="0" stop-color="#f4fffb" stop-opacity="1"/><stop offset=".4" stop-color="#bfeee2" stop-opacity=".7"/><stop offset="1" stop-color="#a8e6dc" stop-opacity="0"/></radialGradient>
<radialGradient id="blush"><stop offset="0" stop-color="#f08a78" stop-opacity=".5"/><stop offset="1" stop-color="#f08a78" stop-opacity="0"/></radialGradient>
<radialGradient id="blushD"><stop offset="0" stop-color="#d9604e" stop-opacity=".45"/><stop offset="1" stop-color="#d9604e" stop-opacity="0"/></radialGradient><linearGradient id="g8e5c3c" x1="0" y1="0" x2=".35" y2="1"><stop offset="0" stop-color="#a57c60"/><stop offset=".55" stop-color="#8e5c3c"/><stop offset="1" stop-color="#966242"/></linearGradient><linearGradient id="ge0b45a" x1="0" y1="0" x2=".35" y2="1"><stop offset="0" stop-color="#e6c278"/><stop offset=".55" stop-color="#e0b45a"/><stop offset="1" stop-color="#dfb15d"/></linearGradient><linearGradient id="ge9b388" x1="0" y1="0" x2=".35" y2="1"><stop offset="0" stop-color="#edc19d"/><stop offset=".55" stop-color="#e9b388"/><stop offset="1" stop-color="#e7b187"/></linearGradient><linearGradient id="g8f7ec4" x1="0" y1="0" x2=".35" y2="1"><stop offset="0" stop-color="#a597cd"/><stop offset=".55" stop-color="#8f7ec4"/><stop offset="1" stop-color="#9681bd"/></linearGradient><linearGradient id="g816c9f" x1="0" y1="0" x2=".35" y2="1"><stop offset="0" stop-color="#9a88af"/><stop offset=".55" stop-color="#816c9f"/><stop offset="1" stop-color="#8a719b"/></linearGradient><linearGradient id="gf2e8f8" x1="0" y1="0" x2=".35" y2="1"><stop offset="0" stop-color="#f5ecf6"/><stop offset=".55" stop-color="#f2e8f8"/><stop offset="1" stop-color="#f0e0eb"/></linearGradient><linearGradient id="gf0cf70" x1="0" y1="0" x2=".35" y2="1"><stop offset="0" stop-color="#f3d88a"/><stop offset=".55" stop-color="#f0cf70"/><stop offset="1" stop-color="#eeca71"/></linearGradient></defs><g filter="url(#paper)"><path d="M-30 -130 Q-36 -100 -38 -50 Q-20 -44 0 -45 Q20 -44 38 -50 Q36 -100 30 -130 Q0 -138 -30 -130Z" fill="url(#g8f7ec4)" filter="url(#sh)"/><path d="M-30 -130 Q-36 -100 -38 -50 Q-20 -44 0 -45 Q20 -44 38 -50 Q36 -100 30 -130 Q0 -138 -30 -130Z" fill="none" stroke="#6f5471" stroke-width="1.8" stroke-linejoin="round" stroke-linecap="round" pathLength="100" stroke-dasharray="70 6 24 0"/><path d="M-30 -130 Q-36 -100 -37 -66 L-11 -66 Q-9 -100 -7 -133Z" fill="url(#g816c9f)" filter="url(#sh)"/><path d="M-30 -130 Q-36 -100 -37 -66 L-11 -66 Q-9 -100 -7 -133Z" fill="none" stroke="#684b5f" stroke-width="1.7" stroke-linejoin="round" stroke-linecap="round" pathLength="100"/><path d="M30 -130 Q36 -100 37 -66 L14 -66 Q12 -100 9 -133Z" fill="url(#g816c9f)" filter="url(#sh)"/><path d="M30 -130 Q36 -100 37 -66 L14 -66 Q12 -100 9 -133Z" fill="none" stroke="#684b5f" stroke-width="1.7" stroke-linejoin="round" stroke-linecap="round" pathLength="100"/><path d="M-12 -128 Q-14 -100 -14 -70" fill="none" stroke="#b3a7c5" stroke-width="1.6" stroke-linecap="round" stroke-linejoin="round" stroke-dasharray="0.1 5"/><path d="M12 -128 Q15 -100 17 -70" fill="none" stroke="#b3a7c5" stroke-width="1.6" stroke-linecap="round" stroke-linejoin="round" stroke-dasharray="0.1 5"/><path d="M-9 -135 L0 -119 L9 -135 Q0 -131 -9 -135Z" fill="url(#gf2e8f8)" filter="url(#sh)"/><path d="M-9 -135 L0 -119 L9 -135 Q0 -131 -9 -135Z" fill="none" stroke="#a0898b" stroke-width="1.5" stroke-linejoin="round" stroke-linecap="round" pathLength="100"/><path d="M-38 -76 Q0 -68 38 -76 L38 -65 Q0 -57 -38 -65Z" fill="url(#g8e5c3c)" filter="url(#sh)"/><path d="M-38 -76 Q0 -68 38 -76 L38 -65 Q0 -57 -38 -65Z" fill="none" stroke="#6e432d" stroke-width="1.6" stroke-linejoin="round" stroke-linecap="round" pathLength="100"/><path d="M-6 -73 h13 v11 h-13z" fill="url(#ge0b45a)" filter="url(#sh)"/><path d="M-6 -73 h13 v11 h-13z" fill="none" stroke="#976f3c" stroke-width="1.5" stroke-linejoin="round" stroke-linecap="round" pathLength="100"/><path d="M-8 -146 L8 -146 L9 -128 L-9 -128Z" fill="url(#ge9b388)" filter="url(#sh)"/><path d="M-8 -146 L8 -146 L9 -128 L-9 -128Z" fill="none" stroke="#9c6f53" stroke-width="1.6" stroke-linejoin="round" stroke-linecap="round" pathLength="100"/><g transform="translate(23 -112) scale(0.8)"><path d="M2 -8 A8 8 0 1 0 2 8 A6 6 0 1 1 2 -8Z" fill="url(#gf0cf70)" filter="url(#sh)"/><path d="M2 -8 A8 8 0 1 0 2 8 A6 6 0 1 1 2 -8Z" fill="none" stroke="#a8763a" stroke-width="1.8" stroke-linejoin="round" stroke-linecap="round" pathLength="100"/><path d="M5 -7 Q5.54 -4.54 8 -4 Q5.54 -3.46 5 -1 Q4.46 -3.46 2 -4 Q4.46 -4.54 5 -7Z" fill="#fffaf0"/></g></g></svg>
