<svg xmlns="http://www.w3.org/2000/svg" viewBox="0 0 50 95" width="50" height="95"><g transform="translate(33 90)"><path d="M-24,-74 L-22,-20 A10,10 0 0 0 -2.01,-20.37 L-2.01,-74.41 A11,11 0 0 0 -24,-74 Z" fill="#2B2A4A" stroke="#2B2A4A" stroke-width="6" stroke-linejoin="round"/><path d="M-23,-44 L-1,-44 L-2,-14 L-23,-14 Z" fill="#2B2A4A" stroke="#2B2A4A" stroke-width="6" stroke-linejoin="round"/><path d="M-28,-9 C-28,-22 -19,-26 -10,-24 C-1,-22 12,-18 12,-8 C12,-2 8,0 1,0 L-22,0 C-26,0 -28,-4 -28,-9 Z" fill="#2B2A4A" stroke="#2B2A4A" stroke-width="6" stroke-linejoin="round"/><path d="M-24,-74 L-22,-20 A10,10 0 0 0 -2.01,-20.37 L-2.01,-74.41 A11,11 0 0 0 -24,-74 Z" fill="#F2B896" stroke="#2B2A4A" stroke-width="2" stroke-linejoin="round"/><path d="M-23,-44 L-1,-44 L-2,-14 L-23,-14 Z" fill="#DCE1EE" stroke="#2B2A4A" stroke-width="2" stroke-linejoin="round"/><path d="M-28,-9 C-28,-22 -19,-26 -10,-24 C-1,-22 12,-18 12,-8 C12,-2 8,0 1,0 L-22,0 C-26,0 -28,-4 -28,-9 Z" fill="#C43E4A" stroke="#2B2A4A" stroke-width="2" stroke-linejoin="round"/><path d="M-27,-5 L11,-5 C10,-1 7,0 1,0 L-22,0 C-25,0 -27,-2 -27,-5 Z" fill="#00000030"/><ellipse cx="-1" cy="-17" rx="5" ry="2.5" fill="#FFFFFF" fill-opacity="0.45"/></g></svg>
