<svg xmlns="http://www.w3.org/2000/svg" viewBox="0 0 178 199" width="178" height="199"><g transform="translate(82 366)"><path d="M6,-280 m-86,0 a86,14 0 1,0 172,0 a86,14 0 1,0 -172,0 Z" fill="#2B2A4A" stroke="#2B2A4A" stroke-width="6" stroke-linejoin="round"/><path d="M-56,-282 C-50,-322 -20,-350 22,-360 Q46,-362 58,-346 Q36,-346 28,-334 C34,-316 52,-296 64,-282 Z" fill="#2B2A4A" stroke="#2B2A4A" stroke-width="6" stroke-linejoin="round"/><path d="M6,-280 m-86,0 a86,14 0 1,0 172,0 a86,14 0 1,0 -172,0 Z" fill="#5E3AA3" stroke="#2B2A4A" stroke-width="2" stroke-linejoin="round" /><path d="M-56,-282 C-50,-322 -20,-350 22,-360 Q46,-362 58,-346 Q36,-346 28,-334 C34,-316 52,-296 64,-282 Z" fill="#7B4FC9" stroke="#2B2A4A" stroke-width="2" stroke-linejoin="round" /><path d="M-55,-292 Q4,-300 63,-292 L64,-282 Q4,-272 -56,-282 Z" fill="#F6C945" stroke="#2B2A4A" stroke-width="2" stroke-linejoin="round" /><path d="M-8.0,-324.0 L-6.0,-318.8 L-0.4,-318.5 L-4.8,-314.9 L-3.3,-309.5 L-8.0,-312.6 L-12.7,-309.5 L-11.2,-314.9 L-15.6,-318.5 L-10.0,-318.8 Z" fill="#FFD54A" stroke="#2B2A4A" stroke-width="1.5" stroke-linejoin="round"/><path d="M32.0,-337.5 L33.4,-333.9 L37.2,-333.7 L34.3,-331.3 L35.2,-327.6 L32.0,-329.6 L28.8,-327.6 L29.7,-331.3 L26.8,-333.7 L30.6,-333.9 Z" fill="#FFD54A" stroke="#2B2A4A" stroke-width="1.5" stroke-linejoin="round"/><path d="M14.0,-296.1 L14.0,-296.0 L14.1,-296.0 L14.0,-296.0 L14.1,-295.9 L14.0,-295.9 L13.9,-295.9 L14.0,-296.0 L13.9,-296.0 L14.0,-296.0 Z" fill="#FFD54A" stroke="#2B2A4A" stroke-width="0" stroke-linejoin="round"/><path d="M-44,-304 C-38,-326 -22,-342 -4,-350" stroke="#B99BEA" stroke-width="3" fill="none" stroke-linecap="round"/></g></svg>