<svg xmlns="http://www.w3.org/2000/svg" viewBox="-42 -70 56.67 78.33" width="68" height="94"><defs>
<filter id="sh" x="-20%" y="-20%" width="140%" height="140%"><feOffset in="SourceAlpha" dx="-4" dy="-5" result="o"/><feGaussianBlur in="o" stdDeviation="1.6" result="b"/><feComposite in="SourceAlpha" in2="b" operator="out" result="c"/><feFlood flood-color="#9a5a46" flood-opacity=".2"/><feComposite in2="c" operator="in" result="s"/><feMerge><feMergeNode in="SourceGraphic"/><feMergeNode in="s"/></feMerge></filter>
<filter id="paper" x="0" y="0" width="100%" height="100%"><feTurbulence type="fractalNoise" baseFrequency=".55" numOctaves="2" seed="4" result="n"/><feColorMatrix in="n" type="matrix" values="0 0 0 0 .6  0 0 0 0 .42  0 0 0 0 .3  0 0 0 -.45 .3" result="m"/><feComposite in="m" in2="SourceAlpha" operator="in" result="t"/><feMerge><feMergeNode in="SourceGraphic"/><feMergeNode in="t"/></feMerge></filter>
<filter id="shL" x="-20%" y="-20%" width="140%" height="140%"><feOffset in="SourceAlpha" dx="-2.2" dy="-2" result="o"/><feGaussianBlur in="o" stdDeviation="1.2" result="b"/><feComposite in="SourceAlpha" in2="b" operator="out" result="c"/><feFlood flood-color="#9a5a46" flood-opacity=".16"/><feComposite in2="c" operator="in" result="s"/><feMerge><feMergeNode in="SourceGraphic"/><feMergeNode in="s"/></feMerge></filter>
<filter id="soft"><feGaussianBlur stdDeviation="3"/></filter>
<radialGradient id="glow"><stop offset="0" stop-color="#fffbd8" stop-opacity="1"/><stop offset=".35" stop-color="#fbe9a0" stop-opacity=".75"/><stop offset="1" stop-color="#f6dc8a" stop-opacity="0"/></radialGradient>
<radialGradient id="glowT"><stop offset="0" stop-color="#f4fffb" stop-opacity="1"/><stop offset=".4" stop-color="#bfeee2" stop-opacity=".7"/><stop offset="1" stop-color="#a8e6dc" stop-opacity="0"/></radialGradient>
<radialGradient id="blush"><stop offset="0" stop-color="#f08a78" stop-opacity=".5"/><stop offset="1" stop-color="#f08a78" stop-opacity="0"/></radialGradient>
<radialGradient id="blushD"><stop offset="0" stop-color="#d9604e" stop-opacity=".45"/><stop offset="1" stop-color="#d9604e" stop-opacity="0"/></radialGradient><linearGradient id="g9a6038" x1="0" y1="0" x2=".35" y2="1"><stop offset="0" stop-color="#ae7f5d"/><stop offset=".55" stop-color="#9a6038"/><stop offset="1" stop-color="#a0663f"/></linearGradient></defs><g filter="url(#paper)"><path d="M-10 -48 Q-11 -30 -12 -14" fill="none" stroke="#a58372" stroke-width="14.6" stroke-linecap="round"/><path d="M-10 -48 Q-11 -30 -12 -14" fill="none" stroke="#fbdcc6" stroke-width="11" stroke-linecap="round" filter="url(#shL)"/><path d="M-11.4 -38 L-12 -14" fill="none" stroke="#a28b7a" stroke-width="16.1" stroke-linecap="round"/><path d="M-11.4 -38 L-12 -14" fill="none" stroke="#f6ecd6" stroke-width="12.5" stroke-linecap="round" filter="url(#shL)"/><path d="M-17 -32 L-6 -32 M-17 -26 L-6 -26" fill="none" stroke="#9fd3b4" stroke-width="2.2" stroke-linecap="round" stroke-linejoin="round"/><path d="M-24 -2 Q-24 -16 -14 -18 L-3 -18 Q0 -8 3 -5 Q4 0 -2 0 L-20 0 Q-24 0 -24 -2Z" fill="url(#g9a6038)" filter="url(#sh)"/><path d="M-24 -2 Q-24 -16 -14 -18 L-3 -18 Q0 -8 3 -5 Q4 0 -2 0 L-20 0 Q-24 0 -24 -2Z" fill="none" stroke="#74452b" stroke-width="1.8" stroke-linejoin="round" stroke-linecap="round" pathLength="100" stroke-dasharray="40 8 52 0"/></g></svg>
