<svg xmlns="http://www.w3.org/2000/svg" viewBox="0 0 178 199" width="178" height="199"><g transform="translate(82 366)"><path d="M-82,-282 L8,-350 L94,-282 Q6,-270 -82,-282 Z" fill="#2B2A4A" stroke="#2B2A4A" stroke-width="6" stroke-linejoin="round"/><path d="M-82,-282 L8,-350 L94,-282 Q6,-270 -82,-282 Z" fill="#FF5C8A" stroke="#2B2A4A" stroke-width="2" stroke-linejoin="round"/><path d="M-58.2,-300 L71.2,-300 L56.1,-312 L-42.3,-312 Z" fill="#FFD84A"/><path d="M-26.4,-324 L40.9,-324 L28.2,-334 L-13.2,-334 Z" fill="#FFD84A"/><path d="M-5.2,-340 L20.6,-340 L13.1,-346 L2.7,-346 Z" fill="#FFD84A"/><path d="M-82,-282 L8,-350 L-14,-332 L-60,-276 Z" fill="#E0446F"/><circle cx="-40" cy="-292" r="4" fill="#4CC9F0" stroke="#2B2A4A" stroke-width="1.5"/><circle cx="40" cy="-296" r="4" fill="#9BE08A" stroke="#2B2A4A" stroke-width="1.5"/><circle cx="70" cy="-291" r="4" fill="#FFD84A" stroke="#2B2A4A" stroke-width="1.5"/><circle cx="8" cy="-356" r="9" fill="#FFD84A" stroke="#2B2A4A" stroke-width="2"/><circle cx="5" cy="-359" r="3" fill="#FFFFFF" stroke="#2B2A4A" stroke-width="0"/><path d="M-82,-282 Q6,-270 94,-282" fill="none" stroke="#2B2A4A" stroke-width="2"/></g></svg>