<svg xmlns="http://www.w3.org/2000/svg" viewBox="0 0 1280 720" width="1280" height="720" stroke-linejoin="round" stroke-linecap="round">
<rect x="0" y="470" width="1280" height="250" rx="0" fill="#6FD36B" stroke="none" /><rect x="0" y="470" width="1280" height="70" rx="0" fill="#8BE086" stroke="none" /><rect x="0" y="540" width="1280" height="180" rx="0" fill="#F2D9A8" stroke="none" /><rect x="0" y="540" width="1280" height="18" rx="0" fill="#DDBB82" stroke="none" /><path d="M0,540 H1280" fill="none" stroke="#2B2A4A" stroke-width="4" /><path d="M0,470 H1280" fill="none" stroke="#2B2A4A" stroke-width="4" /><path d="M0,600 H1280" fill="none" stroke="#C9A96E" stroke-width="2" /><path d="M0,660 H1280" fill="none" stroke="#C9A96E" stroke-width="2" /><path d="M-40,540 V600 M40,600 V660 M-40,660 V720" fill="none" stroke="#C9A96E" stroke-width="2" /><path d="M120,540 V600 M200,600 V660 M120,660 V720" fill="none" stroke="#C9A96E" stroke-width="2" /><path d="M280,540 V600 M360,600 V660 M280,660 V720" fill="none" stroke="#C9A96E" stroke-width="2" /><path d="M440,540 V600 M520,600 V660 M440,660 V720" fill="none" stroke="#C9A96E" stroke-width="2" /><path d="M600,540 V600 M680,600 V660 M600,660 V720" fill="none" stroke="#C9A96E" stroke-width="2" /><path d="M760,540 V600 M840,600 V660 M760,660 V720" fill="none" stroke="#C9A96E" stroke-width="2" /><path d="M920,540 V600 M1000,600 V660 M920,660 V720" fill="none" stroke="#C9A96E" stroke-width="2" /><path d="M1080,540 V600 M1160,600 V660 M1080,660 V720" fill="none" stroke="#C9A96E" stroke-width="2" /><path d="M1240,540 V600 M1320,600 V660 M1240,660 V720" fill="none" stroke="#C9A96E" stroke-width="2" /><ellipse cx="100" cy="505" rx="5" ry="5" fill="#fff" stroke="none" /><ellipse cx="100" cy="505" rx="2" ry="2" fill="#E8505B" stroke="none" /><ellipse cx="330" cy="525" rx="5" ry="5" fill="#fff" stroke="none" /><ellipse cx="330" cy="525" rx="2" ry="2" fill="#FFC94A" stroke="none" /><ellipse cx="590" cy="495" rx="5" ry="5" fill="#fff" stroke="none" /><ellipse cx="590" cy="495" rx="2" ry="2" fill="#E8505B" stroke="none" /><ellipse cx="850" cy="515" rx="5" ry="5" fill="#fff" stroke="none" /><ellipse cx="850" cy="515" rx="2" ry="2" fill="#FFC94A" stroke="none" /><ellipse cx="1090" cy="500" rx="5" ry="5" fill="#fff" stroke="none" /><ellipse cx="1090" cy="500" rx="2" ry="2" fill="#8B5CF6" stroke="none" /><ellipse cx="1200" cy="528" rx="5" ry="5" fill="#fff" stroke="none" /><ellipse cx="1200" cy="528" rx="2" ry="2" fill="#FFC94A" stroke="none" /><path d="M220,505 l-4,-10 M220,505 l4,-10" fill="none" stroke="#3FA94A" stroke-width="3" /><path d="M500,520 l-4,-10 M500,520 l4,-10" fill="none" stroke="#3FA94A" stroke-width="3" /><path d="M760,497 l-4,-10 M760,497 l4,-10" fill="none" stroke="#3FA94A" stroke-width="3" /><path d="M1000,517 l-4,-10 M1000,517 l4,-10" fill="none" stroke="#3FA94A" stroke-width="3" />
</svg>
