<svg xmlns="http://www.w3.org/2000/svg" viewBox="0 0 1280 720" width="1280" height="720" stroke-linejoin="round" stroke-linecap="round">
<rect x="0" y="0" width="1280" height="330" rx="0" fill="#7FD0FF" stroke="none" /><rect x="0" y="330" width="1280" height="140" rx="0" fill="#A6E3FF" stroke="none" /><rect x="0" y="470" width="1280" height="250" rx="0" fill="#6FD36B" stroke="none" /><ellipse cx="170" cy="100" rx="30" ry="30" fill="#fff" stroke="none" /><ellipse cx="210" cy="90" rx="38" ry="38" fill="#fff" stroke="none" /><ellipse cx="252" cy="104" rx="28" ry="28" fill="#fff" stroke="none" /><ellipse cx="520" cy="60" rx="33" ry="33" fill="#fff" stroke="none" /><ellipse cx="564" cy="49" rx="41.8" ry="41.8" fill="#fff" stroke="none" /><ellipse cx="610.2" cy="64.4" rx="30.8" ry="30.8" fill="#fff" stroke="none" /><ellipse cx="860" cy="150" rx="27" ry="27" fill="#fff" stroke="none" /><ellipse cx="896" cy="141" rx="34.2" ry="34.2" fill="#fff" stroke="none" /><ellipse cx="933.8" cy="153.6" rx="25.2" ry="25.2" fill="#fff" stroke="none" /><path d="M0,470 L0,380 Q120,310 260,380 T520,360 T800,380 T1060,340 T1280,380 L1280,470 Z" fill="#9BE59A" stroke="none" /><path d="M0,470 L0,400 Q160,370 340,420 T700,410 T1040,420 T1280,400 L1280,470 Z" fill="#7FD97B" stroke="none" /><ellipse cx="60" cy="410" rx="16" ry="16" fill="#4FB556" stroke="none" /><rect x="57" y="410" width="6" height="24" rx="0" fill="#8A6B3A" stroke="none" /><ellipse cx="330" cy="403" rx="16" ry="16" fill="#4FB556" stroke="none" /><rect x="327" y="403" width="6" height="24" rx="0" fill="#8A6B3A" stroke="none" /><ellipse cx="640" cy="396" rx="16" ry="16" fill="#4FB556" stroke="none" /><rect x="637" y="396" width="6" height="24" rx="0" fill="#8A6B3A" stroke="none" /><ellipse cx="980" cy="405" rx="16" ry="16" fill="#4FB556" stroke="none" /><rect x="977" y="405" width="6" height="24" rx="0" fill="#8A6B3A" stroke="none" /><ellipse cx="1210" cy="398" rx="16" ry="16" fill="#4FB556" stroke="none" /><rect x="1207" y="398" width="6" height="24" rx="0" fill="#8A6B3A" stroke="none" />
</svg>
