<svg xmlns="http://www.w3.org/2000/svg" viewBox="0 0 1280 720" width="1280" height="720" stroke-linejoin="round" stroke-linecap="round">
<rect x="52" y="410" width="16" height="70" rx="0" fill="#A8743C" stroke="#2B2A4A" stroke-width="4" /><ellipse cx="60" cy="370" rx="50" ry="50" fill="#3FA94A" stroke="#2B2A4A" stroke-width="4" /><ellipse cx="26" cy="396" rx="34" ry="34" fill="#3FA94A" stroke="#2B2A4A" stroke-width="4" /><ellipse cx="94" cy="396" rx="34" ry="34" fill="#3FA94A" stroke="#2B2A4A" stroke-width="4" /><ellipse cx="60" cy="370" rx="50" ry="50" fill="#3FA94A" stroke="none" /><ellipse cx="26" cy="396" rx="34" ry="34" fill="#3FA94A" stroke="none" /><ellipse cx="94" cy="396" rx="34" ry="34" fill="#3FA94A" stroke="none" /><ellipse cx="54" cy="362" rx="42" ry="42" fill="#6FD36B" stroke="none" /><ellipse cx="20" cy="388" rx="26" ry="26" fill="#6FD36B" stroke="none" /><ellipse cx="88" cy="388" rx="26" ry="26" fill="#6FD36B" stroke="none" /><rect x="130" y="290" width="200" height="190" rx="0" fill="#FFE2B8" stroke="#2B2A4A" stroke-width="4" /><rect x="130" y="440" width="200" height="40" rx="0" fill="#F2C58E" stroke="#2B2A4A" stroke-width="4" /><rect x="130" y="290" width="200" height="0" rx="0" fill="#FFE2B8" stroke="none" /><path d="M118,296 L142,252 H318 L342,296 Z" fill="#E8505B" stroke="#2B2A4A" stroke-width="4" /><path d="M130,330 V352 Q138.3,366 146.7,352 V330 Z" fill="#E8505B" stroke="#2B2A4A" stroke-width="3" /><path d="M146.7,330 V352 Q155,366 163.3,352 V330 Z" fill="#fff" stroke="#2B2A4A" stroke-width="3" /><path d="M163.3,330 V352 Q171.7,366 180,352 V330 Z" fill="#E8505B" stroke="#2B2A4A" stroke-width="3" /><path d="M180,330 V352 Q188.3,366 196.7,352 V330 Z" fill="#fff" stroke="#2B2A4A" stroke-width="3" /><path d="M196.7,330 V352 Q205,366 213.3,352 V330 Z" fill="#E8505B" stroke="#2B2A4A" stroke-width="3" /><path d="M213.3,330 V352 Q221.7,366 230,352 V330 Z" fill="#fff" stroke="#2B2A4A" stroke-width="3" /><path d="M230,330 V352 Q238.3,366 246.7,352 V330 Z" fill="#E8505B" stroke="#2B2A4A" stroke-width="3" /><path d="M246.7,330 V352 Q255,366 263.3,352 V330 Z" fill="#fff" stroke="#2B2A4A" stroke-width="3" /><path d="M263.3,330 V352 Q271.7,366 280,352 V330 Z" fill="#E8505B" stroke="#2B2A4A" stroke-width="3" /><path d="M280,330 V352 Q288.3,366 296.7,352 V330 Z" fill="#fff" stroke="#2B2A4A" stroke-width="3" /><path d="M296.7,330 V352 Q305,366 313.3,352 V330 Z" fill="#E8505B" stroke="#2B2A4A" stroke-width="3" /><path d="M313.3,330 V352 Q321.7,366 330,352 V330 Z" fill="#fff" stroke="#2B2A4A" stroke-width="3" /><rect x="258" y="372" width="52" height="108" rx="4" fill="#A8743C" stroke="#2B2A4A" stroke-width="4" /><rect x="264" y="380" width="16" height="100" rx="0" fill="#C98F52" stroke="none" /><ellipse cx="300" cy="430" rx="4" ry="4" fill="#FFC94A" stroke="#2B2A4A" stroke-width="2" /><rect x="148" y="372" width="56" height="52" rx="4" fill="#fff" stroke="#2B2A4A" stroke-width="4" /><rect x="155" y="379" width="42" height="38" rx="0" fill="#A6E3FF" stroke="#2B2A4A" stroke-width="2" /><path d="M176,379 V417 M155,398 H197" fill="none" stroke="#2B2A4A" stroke-width="2" /><rect x="196" y="224" width="68" height="42" rx="8" fill="#FFF3C4" stroke="#2B2A4A" stroke-width="4" /><ellipse cx="230" cy="246" rx="13" ry="13" fill="#E8505B" stroke="#2B2A4A" stroke-width="3" /><path d="M230.0,233 q2,-6 7,-7" fill="none" stroke="#3FA94A" stroke-width="3" /><rect x="340" y="290" width="200" height="190" rx="0" fill="#FFD9EC" stroke="#2B2A4A" stroke-width="4" /><rect x="340" y="440" width="200" height="40" rx="0" fill="#F2B6D6" stroke="#2B2A4A" stroke-width="4" /><rect x="340" y="290" width="200" height="0" rx="0" fill="#FFD9EC" stroke="none" /><path d="M328,296 L352,252 H528 L552,296 Z" fill="#8B5CF6" stroke="#2B2A4A" stroke-width="4" /><path d="M340,330 V352 Q348.3,366 356.7,352 V330 Z" fill="#8B5CF6" stroke="#2B2A4A" stroke-width="3" /><path d="M356.7,330 V352 Q365,366 373.3,352 V330 Z" fill="#fff" stroke="#2B2A4A" stroke-width="3" /><path d="M373.3,330 V352 Q381.7,366 390,352 V330 Z" fill="#8B5CF6" stroke="#2B2A4A" stroke-width="3" /><path d="M390,330 V352 Q398.3,366 406.7,352 V330 Z" fill="#fff" stroke="#2B2A4A" stroke-width="3" /><path d="M406.7,330 V352 Q415,366 423.3,352 V330 Z" fill="#8B5CF6" stroke="#2B2A4A" stroke-width="3" /><path d="M423.3,330 V352 Q431.7,366 440,352 V330 Z" fill="#fff" stroke="#2B2A4A" stroke-width="3" /><path d="M440,330 V352 Q448.3,366 456.7,352 V330 Z" fill="#8B5CF6" stroke="#2B2A4A" stroke-width="3" /><path d="M456.7,330 V352 Q465,366 473.3,352 V330 Z" fill="#fff" stroke="#2B2A4A" stroke-width="3" /><path d="M473.3,330 V352 Q481.7,366 490,352 V330 Z" fill="#8B5CF6" stroke="#2B2A4A" stroke-width="3" /><path d="M490,330 V352 Q498.3,366 506.7,352 V330 Z" fill="#fff" stroke="#2B2A4A" stroke-width="3" /><path d="M506.7,330 V352 Q515,366 523.3,352 V330 Z" fill="#8B5CF6" stroke="#2B2A4A" stroke-width="3" /><path d="M523.3,330 V352 Q531.7,366 540,352 V330 Z" fill="#fff" stroke="#2B2A4A" stroke-width="3" /><rect x="468" y="372" width="52" height="108" rx="4" fill="#A8743C" stroke="#2B2A4A" stroke-width="4" /><rect x="474" y="380" width="16" height="100" rx="0" fill="#C98F52" stroke="none" /><ellipse cx="510" cy="430" rx="4" ry="4" fill="#FFC94A" stroke="#2B2A4A" stroke-width="2" /><rect x="358" y="372" width="56" height="52" rx="4" fill="#fff" stroke="#2B2A4A" stroke-width="4" /><rect x="365" y="379" width="42" height="38" rx="0" fill="#A6E3FF" stroke="#2B2A4A" stroke-width="2" /><path d="M386,379 V417 M365,398 H407" fill="none" stroke="#2B2A4A" stroke-width="2" /><rect x="390" y="222" width="100" height="46" rx="8" fill="#FFF3C4" stroke="#2B2A4A" stroke-width="4" /><rect x="390" y="256" width="100" height="12" rx="0" fill="#F2D9A8" stroke="none" /><path d="M422.0,242 Q422.0,224 440.0,224 Q458.0,224 458.0,242" fill="none" stroke="#2B2A4A" stroke-width="3" /><rect x="416" y="238" width="48" height="24" rx="6" fill="#8B5CF6" stroke="#2B2A4A" stroke-width="3" /><rect x="416" y="248" width="48" height="5" rx="0" fill="#6D3FD6" stroke="none" /><ellipse cx="440" cy="246" rx="4" ry="4" fill="#FFC94A" stroke="#2B2A4A" stroke-width="2" /><ellipse cx="478" cy="236" rx="5" ry="5" fill="#E8505B" stroke="#2B2A4A" stroke-width="2" /><rect x="740" y="290" width="200" height="190" rx="0" fill="#FFF3C4" stroke="#2B2A4A" stroke-width="4" /><rect x="740" y="440" width="200" height="40" rx="0" fill="#F2DA8E" stroke="#2B2A4A" stroke-width="4" /><rect x="740" y="290" width="200" height="0" rx="0" fill="#FFF3C4" stroke="none" /><path d="M728,296 L752,252 H928 L952,296 Z" fill="#FF9F43" stroke="#2B2A4A" stroke-width="4" /><path d="M740,330 V352 Q748.3,366 756.7,352 V330 Z" fill="#FF9F43" stroke="#2B2A4A" stroke-width="3" /><path d="M756.7,330 V352 Q765,366 773.3,352 V330 Z" fill="#fff" stroke="#2B2A4A" stroke-width="3" /><path d="M773.3,330 V352 Q781.7,366 790,352 V330 Z" fill="#FF9F43" stroke="#2B2A4A" stroke-width="3" /><path d="M790,330 V352 Q798.3,366 806.7,352 V330 Z" fill="#fff" stroke="#2B2A4A" stroke-width="3" /><path d="M806.7,330 V352 Q815,366 823.3,352 V330 Z" fill="#FF9F43" stroke="#2B2A4A" stroke-width="3" /><path d="M823.3,330 V352 Q831.7,366 840,352 V330 Z" fill="#fff" stroke="#2B2A4A" stroke-width="3" /><path d="M840,330 V352 Q848.3,366 856.7,352 V330 Z" fill="#FF9F43" stroke="#2B2A4A" stroke-width="3" /><path d="M856.7,330 V352 Q865,366 873.3,352 V330 Z" fill="#fff" stroke="#2B2A4A" stroke-width="3" /><path d="M873.3,330 V352 Q881.7,366 890,352 V330 Z" fill="#FF9F43" stroke="#2B2A4A" stroke-width="3" /><path d="M890,330 V352 Q898.3,366 906.7,352 V330 Z" fill="#fff" stroke="#2B2A4A" stroke-width="3" /><path d="M906.7,330 V352 Q915,366 923.3,352 V330 Z" fill="#FF9F43" stroke="#2B2A4A" stroke-width="3" /><path d="M923.3,330 V352 Q931.7,366 940,352 V330 Z" fill="#fff" stroke="#2B2A4A" stroke-width="3" /><rect x="868" y="372" width="52" height="108" rx="4" fill="#A8743C" stroke="#2B2A4A" stroke-width="4" /><rect x="874" y="380" width="16" height="100" rx="0" fill="#C98F52" stroke="none" /><ellipse cx="910" cy="430" rx="4" ry="4" fill="#FFC94A" stroke="#2B2A4A" stroke-width="2" /><rect x="758" y="372" width="56" height="52" rx="4" fill="#fff" stroke="#2B2A4A" stroke-width="4" /><rect x="765" y="379" width="42" height="38" rx="0" fill="#A6E3FF" stroke="#2B2A4A" stroke-width="2" /><path d="M786,379 V417 M765,398 H807" fill="none" stroke="#2B2A4A" stroke-width="2" /><rect x="806" y="224" width="68" height="42" rx="8" fill="#FFF3C4" stroke="#2B2A4A" stroke-width="4" /><rect x="826" y="234" width="28" height="18" rx="4" fill="#fff" stroke="#2B2A4A" stroke-width="3" /><ellipse cx="858" cy="243" rx="6" ry="7" fill="none" stroke="#2B2A4A" stroke-width="3" /><ellipse cx="840" cy="234" rx="8" ry="3" fill="#8A5A2C" stroke="none" /><rect x="950" y="290" width="190" height="190" rx="0" fill="#D5F0FF" stroke="#2B2A4A" stroke-width="4" /><rect x="950" y="440" width="190" height="40" rx="0" fill="#A9D8F0" stroke="#2B2A4A" stroke-width="4" /><rect x="950" y="290" width="190" height="0" rx="0" fill="#D5F0FF" stroke="none" /><path d="M938,296 L962,252 H1128 L1152,296 Z" fill="#3FA94A" stroke="#2B2A4A" stroke-width="4" /><path d="M950,330 V352 Q957.9,366 965.8,352 V330 Z" fill="#3FA94A" stroke="#2B2A4A" stroke-width="3" /><path d="M965.8,330 V352 Q973.8,366 981.7,352 V330 Z" fill="#fff" stroke="#2B2A4A" stroke-width="3" /><path d="M981.7,330 V352 Q989.6,366 997.5,352 V330 Z" fill="#3FA94A" stroke="#2B2A4A" stroke-width="3" /><path d="M997.5,330 V352 Q1005.4,366 1013.3,352 V330 Z" fill="#fff" stroke="#2B2A4A" stroke-width="3" /><path d="M1013.3,330 V352 Q1021.2,366 1029.2,352 V330 Z" fill="#3FA94A" stroke="#2B2A4A" stroke-width="3" /><path d="M1029.2,330 V352 Q1037.1,366 1045,352 V330 Z" fill="#fff" stroke="#2B2A4A" stroke-width="3" /><path d="M1045,330 V352 Q1052.9,366 1060.8,352 V330 Z" fill="#3FA94A" stroke="#2B2A4A" stroke-width="3" /><path d="M1060.8,330 V352 Q1068.8,366 1076.7,352 V330 Z" fill="#fff" stroke="#2B2A4A" stroke-width="3" /><path d="M1076.7,330 V352 Q1084.6,366 1092.5,352 V330 Z" fill="#3FA94A" stroke="#2B2A4A" stroke-width="3" /><path d="M1092.5,330 V352 Q1100.4,366 1108.3,352 V330 Z" fill="#fff" stroke="#2B2A4A" stroke-width="3" /><path d="M1108.3,330 V352 Q1116.2,366 1124.2,352 V330 Z" fill="#3FA94A" stroke="#2B2A4A" stroke-width="3" /><path d="M1124.2,330 V352 Q1132.1,366 1140,352 V330 Z" fill="#fff" stroke="#2B2A4A" stroke-width="3" /><rect x="1068" y="372" width="52" height="108" rx="4" fill="#A8743C" stroke="#2B2A4A" stroke-width="4" /><rect x="1074" y="380" width="16" height="100" rx="0" fill="#C98F52" stroke="none" /><ellipse cx="1110" cy="430" rx="4" ry="4" fill="#FFC94A" stroke="#2B2A4A" stroke-width="2" /><rect x="968" y="372" width="56" height="52" rx="4" fill="#fff" stroke="#2B2A4A" stroke-width="4" /><rect x="975" y="379" width="42" height="38" rx="0" fill="#A6E3FF" stroke="#2B2A4A" stroke-width="2" /><path d="M996,379 V417 M975,398 H1017" fill="none" stroke="#2B2A4A" stroke-width="2" /><rect x="1011" y="224" width="68" height="42" rx="8" fill="#FFF3C4" stroke="#2B2A4A" stroke-width="4" /><path d="M1045.0,228 l5,11 12,1 -9,8 3,12 -11,-6 -11,6 3,-12 -9,-8 12,-1 Z" fill="#FFC94A" stroke="#2B2A4A" stroke-width="3" /><rect x="618" y="330" width="44" height="140" rx="4" fill="#C9D6E8" stroke="#2B2A4A" stroke-width="4" /><rect x="618" y="330" width="16" height="140" rx="0" fill="#A9B8D0" stroke="none" /><ellipse cx="640" cy="330" rx="56" ry="16" fill="#A6E3FF" stroke="#2B2A4A" stroke-width="4" /><ellipse cx="640" cy="328" rx="40" ry="9" fill="#7FD0FF" stroke="none" /><path d="M632,330 Q636,290 640,282 Q644,290 648,330 Z" fill="#A6E3FF" stroke="#2B2A4A" stroke-width="3" /><rect x="530" y="432" width="220" height="48" rx="10" fill="#DDE6F3" stroke="#2B2A4A" stroke-width="4" /><rect x="530" y="456" width="220" height="24" rx="0" fill="#B9C6DC" stroke="none" /><rect x="530" y="432" width="220" height="0" rx="0" fill="#fff" stroke="none" /><ellipse cx="640" cy="432" rx="100" ry="16" fill="#C9D6E8" stroke="#2B2A4A" stroke-width="4" /><ellipse cx="640" cy="432" rx="88" ry="11" fill="#A6E3FF" stroke="#2B2A4A" stroke-width="3" /><path d="M640,330 Q600,300 578,352" fill="none" stroke="#7FD0FF" stroke-width="4" /><path d="M640,330 Q680,300 702,352" fill="none" stroke="#7FD0FF" stroke-width="4" /><ellipse cx="640" cy="310" rx="10" ry="10" fill="#fff" stroke="#2B2A4A" stroke-width="3" /><rect x="558" y="462" width="28" height="18" rx="0" fill="#6B6A8A" stroke="#2B2A4A" stroke-width="4" /><rect x="567" y="360" width="10" height="104" rx="0" fill="#4A4A6A" stroke="#2B2A4A" stroke-width="4" /><rect x="556" y="332" width="32" height="32" rx="6" fill="#FFE08A" stroke="#2B2A4A" stroke-width="4" /><rect x="564" y="340" width="10" height="16" rx="0" fill="#FFF3C4" stroke="none" /><path d="M550,334 L572,312 L594,334 Z" fill="#E8505B" stroke="#2B2A4A" stroke-width="4" /><rect x="694" y="462" width="28" height="18" rx="0" fill="#6B6A8A" stroke="#2B2A4A" stroke-width="4" /><rect x="703" y="360" width="10" height="104" rx="0" fill="#4A4A6A" stroke="#2B2A4A" stroke-width="4" /><rect x="692" y="332" width="32" height="32" rx="6" fill="#FFE08A" stroke="#2B2A4A" stroke-width="4" /><rect x="700" y="340" width="10" height="16" rx="0" fill="#FFF3C4" stroke="none" /><path d="M686,334 L708,312 L730,334 Z" fill="#E8505B" stroke="#2B2A4A" stroke-width="4" /><rect x="150" y="448" width="110" height="32" rx="4" fill="#C98F52" stroke="#2B2A4A" stroke-width="4" /><rect x="150" y="468" width="110" height="12" rx="0" fill="#A8743C" stroke="none" /><path d="M166,448 V428" fill="none" stroke="#3FA94A" stroke-width="3" /><ellipse cx="166" cy="422" rx="11" ry="11" fill="#E8505B" stroke="#2B2A4A" stroke-width="3" /><ellipse cx="166" cy="422" rx="4" ry="4" fill="#FFC94A" stroke="none" /><path d="M205,448 V428" fill="none" stroke="#3FA94A" stroke-width="3" /><ellipse cx="205" cy="422" rx="11" ry="11" fill="#FFC94A" stroke="#2B2A4A" stroke-width="3" /><ellipse cx="205" cy="422" rx="4" ry="4" fill="#FFC94A" stroke="none" /><path d="M244,448 V428" fill="none" stroke="#3FA94A" stroke-width="3" /><ellipse cx="244" cy="422" rx="11" ry="11" fill="#FF9F43" stroke="#2B2A4A" stroke-width="3" /><ellipse cx="244" cy="422" rx="4" ry="4" fill="#FFC94A" stroke="none" /><rect x="1000" y="448" width="110" height="32" rx="4" fill="#C98F52" stroke="#2B2A4A" stroke-width="4" /><rect x="1000" y="468" width="110" height="12" rx="0" fill="#A8743C" stroke="none" /><path d="M1016,448 V428" fill="none" stroke="#3FA94A" stroke-width="3" /><ellipse cx="1016" cy="422" rx="11" ry="11" fill="#8B5CF6" stroke="#2B2A4A" stroke-width="3" /><ellipse cx="1016" cy="422" rx="4" ry="4" fill="#FFC94A" stroke="none" /><path d="M1055,448 V428" fill="none" stroke="#3FA94A" stroke-width="3" /><ellipse cx="1055" cy="422" rx="11" ry="11" fill="#FFC94A" stroke="#2B2A4A" stroke-width="3" /><ellipse cx="1055" cy="422" rx="4" ry="4" fill="#FFC94A" stroke="none" /><path d="M1094,448 V428" fill="none" stroke="#3FA94A" stroke-width="3" /><ellipse cx="1094" cy="422" rx="11" ry="11" fill="#E8505B" stroke="#2B2A4A" stroke-width="3" /><ellipse cx="1094" cy="422" rx="4" ry="4" fill="#FFC94A" stroke="none" /><rect x="356" y="440" width="10" height="40" rx="0" fill="#8A5A2C" stroke="#2B2A4A" stroke-width="4" /><rect x="428" y="440" width="10" height="40" rx="0" fill="#8A5A2C" stroke="#2B2A4A" stroke-width="4" /><rect x="348" y="436" width="100" height="12" rx="0" fill="#C98F52" stroke="#2B2A4A" stroke-width="4" /><rect x="348" y="444" width="100" height="4" rx="0" fill="#A8743C" stroke="none" /><rect x="348" y="412" width="100" height="12" rx="0" fill="#C98F52" stroke="#2B2A4A" stroke-width="4" /><rect x="348" y="420" width="100" height="4" rx="0" fill="#A8743C" stroke="none" /><rect x="746" y="440" width="10" height="40" rx="0" fill="#8A5A2C" stroke="#2B2A4A" stroke-width="4" /><rect x="818" y="440" width="10" height="40" rx="0" fill="#8A5A2C" stroke="#2B2A4A" stroke-width="4" /><rect x="738" y="436" width="100" height="12" rx="0" fill="#C98F52" stroke="#2B2A4A" stroke-width="4" /><rect x="738" y="444" width="100" height="4" rx="0" fill="#A8743C" stroke="none" /><rect x="738" y="412" width="100" height="12" rx="0" fill="#C98F52" stroke="#2B2A4A" stroke-width="4" /><rect x="738" y="420" width="100" height="4" rx="0" fill="#A8743C" stroke="none" /><rect x="1221.2" y="410" width="17.6" height="70" rx="0" fill="#A8743C" stroke="#2B2A4A" stroke-width="4" /><ellipse cx="1230" cy="370" rx="55" ry="55" fill="#3FA94A" stroke="#2B2A4A" stroke-width="4" /><ellipse cx="1192.6" cy="396" rx="37.4" ry="37.4" fill="#3FA94A" stroke="#2B2A4A" stroke-width="4" /><ellipse cx="1267.4" cy="396" rx="37.4" ry="37.4" fill="#3FA94A" stroke="#2B2A4A" stroke-width="4" /><ellipse cx="1230" cy="370" rx="55" ry="55" fill="#3FA94A" stroke="none" /><ellipse cx="1192.6" cy="396" rx="37.4" ry="37.4" fill="#3FA94A" stroke="none" /><ellipse cx="1267.4" cy="396" rx="37.4" ry="37.4" fill="#3FA94A" stroke="none" /><ellipse cx="1223.4" cy="362" rx="46.2" ry="46.2" fill="#6FD36B" stroke="none" /><ellipse cx="1186" cy="388" rx="28.6" ry="28.6" fill="#6FD36B" stroke="none" /><ellipse cx="1260.8" cy="388" rx="28.6" ry="28.6" fill="#6FD36B" stroke="none" />
</svg>
