<svg xmlns="http://www.w3.org/2000/svg" viewBox="0 0 1280 720" width="1280" height="720" stroke-linejoin="round" stroke-linecap="round">
<rect x="0" y="470" width="1280" height="250" rx="0" fill="#B07A4A" stroke="none"/><rect x="0" y="470" width="1280" height="10" rx="0" fill="#8F5A2E" stroke="none"/><rect x="-120" y="480" width="120" height="40" rx="0" fill="#B87F4E" stroke="#2B2A4A" stroke-width="3"/><rect x="0" y="480" width="120" height="40" rx="0" fill="#C48B58" stroke="#2B2A4A" stroke-width="3"/><rect x="120" y="480" width="120" height="40" rx="0" fill="#B87F4E" stroke="#2B2A4A" stroke-width="3"/><rect x="240" y="480" width="120" height="40" rx="0" fill="#C48B58" stroke="#2B2A4A" stroke-width="3"/><rect x="360" y="480" width="120" height="40" rx="0" fill="#B87F4E" stroke="#2B2A4A" stroke-width="3"/><rect x="480" y="480" width="120" height="40" rx="0" fill="#C48B58" stroke="#2B2A4A" stroke-width="3"/><rect x="600" y="480" width="120" height="40" rx="0" fill="#B87F4E" stroke="#2B2A4A" stroke-width="3"/><rect x="720" y="480" width="120" height="40" rx="0" fill="#C48B58" stroke="#2B2A4A" stroke-width="3"/><rect x="840" y="480" width="120" height="40" rx="0" fill="#B87F4E" stroke="#2B2A4A" stroke-width="3"/><rect x="960" y="480" width="120" height="40" rx="0" fill="#C48B58" stroke="#2B2A4A" stroke-width="3"/><rect x="1080" y="480" width="120" height="40" rx="0" fill="#B87F4E" stroke="#2B2A4A" stroke-width="3"/><rect x="1200" y="480" width="120" height="40" rx="0" fill="#C48B58" stroke="#2B2A4A" stroke-width="3"/><rect x="-60" y="520" width="120" height="40" rx="0" fill="#C48B58" stroke="#2B2A4A" stroke-width="3"/><rect x="60" y="520" width="120" height="40" rx="0" fill="#B87F4E" stroke="#2B2A4A" stroke-width="3"/><rect x="180" y="520" width="120" height="40" rx="0" fill="#C48B58" stroke="#2B2A4A" stroke-width="3"/><rect x="300" y="520" width="120" height="40" rx="0" fill="#B87F4E" stroke="#2B2A4A" stroke-width="3"/><rect x="420" y="520" width="120" height="40" rx="0" fill="#C48B58" stroke="#2B2A4A" stroke-width="3"/><rect x="540" y="520" width="120" height="40" rx="0" fill="#B87F4E" stroke="#2B2A4A" stroke-width="3"/><rect x="660" y="520" width="120" height="40" rx="0" fill="#C48B58" stroke="#2B2A4A" stroke-width="3"/><rect x="780" y="520" width="120" height="40" rx="0" fill="#B87F4E" stroke="#2B2A4A" stroke-width="3"/><rect x="900" y="520" width="120" height="40" rx="0" fill="#C48B58" stroke="#2B2A4A" stroke-width="3"/><rect x="1020" y="520" width="120" height="40" rx="0" fill="#B87F4E" stroke="#2B2A4A" stroke-width="3"/><rect x="1140" y="520" width="120" height="40" rx="0" fill="#C48B58" stroke="#2B2A4A" stroke-width="3"/><rect x="1260" y="520" width="120" height="40" rx="0" fill="#B87F4E" stroke="#2B2A4A" stroke-width="3"/><rect x="-120" y="560" width="120" height="40" rx="0" fill="#B87F4E" stroke="#2B2A4A" stroke-width="3"/><rect x="0" y="560" width="120" height="40" rx="0" fill="#C48B58" stroke="#2B2A4A" stroke-width="3"/><rect x="120" y="560" width="120" height="40" rx="0" fill="#B87F4E" stroke="#2B2A4A" stroke-width="3"/><rect x="240" y="560" width="120" height="40" rx="0" fill="#C48B58" stroke="#2B2A4A" stroke-width="3"/><rect x="360" y="560" width="120" height="40" rx="0" fill="#B87F4E" stroke="#2B2A4A" stroke-width="3"/><rect x="480" y="560" width="120" height="40" rx="0" fill="#C48B58" stroke="#2B2A4A" stroke-width="3"/><rect x="600" y="560" width="120" height="40" rx="0" fill="#B87F4E" stroke="#2B2A4A" stroke-width="3"/><rect x="720" y="560" width="120" height="40" rx="0" fill="#C48B58" stroke="#2B2A4A" stroke-width="3"/><rect x="840" y="560" width="120" height="40" rx="0" fill="#B87F4E" stroke="#2B2A4A" stroke-width="3"/><rect x="960" y="560" width="120" height="40" rx="0" fill="#C48B58" stroke="#2B2A4A" stroke-width="3"/><rect x="1080" y="560" width="120" height="40" rx="0" fill="#B87F4E" stroke="#2B2A4A" stroke-width="3"/><rect x="1200" y="560" width="120" height="40" rx="0" fill="#C48B58" stroke="#2B2A4A" stroke-width="3"/><rect x="-60" y="600" width="120" height="40" rx="0" fill="#C48B58" stroke="#2B2A4A" stroke-width="3"/><rect x="60" y="600" width="120" height="40" rx="0" fill="#B87F4E" stroke="#2B2A4A" stroke-width="3"/><rect x="180" y="600" width="120" height="40" rx="0" fill="#C48B58" stroke="#2B2A4A" stroke-width="3"/><rect x="300" y="600" width="120" height="40" rx="0" fill="#B87F4E" stroke="#2B2A4A" stroke-width="3"/><rect x="420" y="600" width="120" height="40" rx="0" fill="#C48B58" stroke="#2B2A4A" stroke-width="3"/><rect x="540" y="600" width="120" height="40" rx="0" fill="#B87F4E" stroke="#2B2A4A" stroke-width="3"/><rect x="660" y="600" width="120" height="40" rx="0" fill="#C48B58" stroke="#2B2A4A" stroke-width="3"/><rect x="780" y="600" width="120" height="40" rx="0" fill="#B87F4E" stroke="#2B2A4A" stroke-width="3"/><rect x="900" y="600" width="120" height="40" rx="0" fill="#C48B58" stroke="#2B2A4A" stroke-width="3"/><rect x="1020" y="600" width="120" height="40" rx="0" fill="#B87F4E" stroke="#2B2A4A" stroke-width="3"/><rect x="1140" y="600" width="120" height="40" rx="0" fill="#C48B58" stroke="#2B2A4A" stroke-width="3"/><rect x="1260" y="600" width="120" height="40" rx="0" fill="#B87F4E" stroke="#2B2A4A" stroke-width="3"/><rect x="-120" y="640" width="120" height="40" rx="0" fill="#B87F4E" stroke="#2B2A4A" stroke-width="3"/><rect x="0" y="640" width="120" height="40" rx="0" fill="#C48B58" stroke="#2B2A4A" stroke-width="3"/><rect x="120" y="640" width="120" height="40" rx="0" fill="#B87F4E" stroke="#2B2A4A" stroke-width="3"/><rect x="240" y="640" width="120" height="40" rx="0" fill="#C48B58" stroke="#2B2A4A" stroke-width="3"/><rect x="360" y="640" width="120" height="40" rx="0" fill="#B87F4E" stroke="#2B2A4A" stroke-width="3"/><rect x="480" y="640" width="120" height="40" rx="0" fill="#C48B58" stroke="#2B2A4A" stroke-width="3"/><rect x="600" y="640" width="120" height="40" rx="0" fill="#B87F4E" stroke="#2B2A4A" stroke-width="3"/><rect x="720" y="640" width="120" height="40" rx="0" fill="#C48B58" stroke="#2B2A4A" stroke-width="3"/><rect x="840" y="640" width="120" height="40" rx="0" fill="#B87F4E" stroke="#2B2A4A" stroke-width="3"/><rect x="960" y="640" width="120" height="40" rx="0" fill="#C48B58" stroke="#2B2A4A" stroke-width="3"/><rect x="1080" y="640" width="120" height="40" rx="0" fill="#B87F4E" stroke="#2B2A4A" stroke-width="3"/><rect x="1200" y="640" width="120" height="40" rx="0" fill="#C48B58" stroke="#2B2A4A" stroke-width="3"/><rect x="-60" y="680" width="120" height="40" rx="0" fill="#C48B58" stroke="#2B2A4A" stroke-width="3"/><rect x="60" y="680" width="120" height="40" rx="0" fill="#B87F4E" stroke="#2B2A4A" stroke-width="3"/><rect x="180" y="680" width="120" height="40" rx="0" fill="#C48B58" stroke="#2B2A4A" stroke-width="3"/><rect x="300" y="680" width="120" height="40" rx="0" fill="#B87F4E" stroke="#2B2A4A" stroke-width="3"/><rect x="420" y="680" width="120" height="40" rx="0" fill="#C48B58" stroke="#2B2A4A" stroke-width="3"/><rect x="540" y="680" width="120" height="40" rx="0" fill="#B87F4E" stroke="#2B2A4A" stroke-width="3"/><rect x="660" y="680" width="120" height="40" rx="0" fill="#C48B58" stroke="#2B2A4A" stroke-width="3"/><rect x="780" y="680" width="120" height="40" rx="0" fill="#B87F4E" stroke="#2B2A4A" stroke-width="3"/><rect x="900" y="680" width="120" height="40" rx="0" fill="#C48B58" stroke="#2B2A4A" stroke-width="3"/><rect x="1020" y="680" width="120" height="40" rx="0" fill="#B87F4E" stroke="#2B2A4A" stroke-width="3"/><rect x="1140" y="680" width="120" height="40" rx="0" fill="#C48B58" stroke="#2B2A4A" stroke-width="3"/><rect x="1260" y="680" width="120" height="40" rx="0" fill="#B87F4E" stroke="#2B2A4A" stroke-width="3"/><rect x="0" y="470" width="1280" height="6" rx="0" fill="#6E4524" stroke="none"/><ellipse cx="640" cy="640" rx="330" ry="58" fill="#8B5CF6" stroke="#2B2A4A" stroke-width="4"/><ellipse cx="640" cy="640" rx="290" ry="44" fill="#E8505B" stroke="#2B2A4A" stroke-width="3"/><ellipse cx="640" cy="640" rx="230" ry="32" fill="#FFC94A" stroke="#2B2A4A" stroke-width="3"/><ellipse cx="640" cy="640" rx="160" ry="20" fill="#E8505B" stroke="#2B2A4A" stroke-width="3"/><rect x="1130" y="540" width="130" height="34" rx="6" fill="#3FA94A" stroke="#2B2A4A" stroke-width="4"/><rect x="1142" y="548" width="106" height="18" rx="4" fill="#6FD36B" stroke="none"/><ellipse cx="820" cy="478" rx="160" ry="8" fill="#8F5A2E" stroke="none"/><ellipse cx="210" cy="478" rx="170" ry="8" fill="#8F5A2E" stroke="none"/><ellipse cx="1045" cy="478" rx="90" ry="8" fill="#8F5A2E" stroke="none"/>
</svg>
