<svg xmlns="http://www.w3.org/2000/svg" viewBox="0 0 64 64" width="64" height="64"><ellipse cx="32" cy="55" rx="22" ry="6" fill="#8A5A35" fill-opacity="0.45"/><circle cx="32" cy="32" r="26" fill="#8A5A35" fill-opacity="0.25"/><path d="M8,38 Q8,20 14,18 L24,18 Q24,30 34,32 Q52,34 56,42 L56,48 L8,48 Z" fill="#8A5A35" stroke="#2B2A4A" stroke-width="2" stroke-linejoin="round"/><path d="M8,38 Q8,20 14,18 L18,18 Q15,30 16,40 Z" fill="#6B4226"/><path d="M8,46 L56,46 L56,52 L8,52 Z" fill="#4A2E18" stroke="#2B2A4A" stroke-width="2" stroke-linejoin="round"/><path d="M44,46 L56,46 L56,52 L44,52 Z" fill="#2B2A4A" stroke="#2B2A4A" stroke-width="2" stroke-linejoin="round"/><path d="M26,24 L32,28 M30,22 L36,26 M33,32 L38,29" fill="none" stroke="#2B2A4A" stroke-width="1.5" stroke-linecap="round" stroke-linejoin="round"/><path d="M20,22 L26,22 Q27,28 31,31 Q22,32 18,26 Z" fill="#FFC94A" fill-opacity="0.0001"/><path d="M12,24 L14,20 L16,22 Z" fill="#FFFFFF" fill-opacity="0.6"/></svg>